HIERARCHY
ROOT Hips
{
  OFFSET 0 0 0
  CHANNELS 6 Xposition Yposition Zposition Zrotation Yrotation Xrotation
  JOINT LeftThigh
  {
    OFFSET 8.409438 0 -5.917753
    CHANNELS 3 Zrotation Yrotation Xrotation
    JOINT LeftLeg
    {
      OFFSET 0 0 -42.358652
      CHANNELS 3 Zrotation Yrotation Xrotation
      JOINT LeftFoot
      {
        OFFSET 0 0 -39.357303
        CHANNELS 3 Zrotation Yrotation Xrotation
      }
    }
  }
  JOINT RightThigh
  {
    OFFSET -8.409438 0 -5.917753
    CHANNELS 3 Zrotation Yrotation Xrotation
    JOINT RightLeg
    {
      OFFSET 0 0 -42.358652
      CHANNELS 3 Zrotation Yrotation Xrotation
      JOINT RightFoot
      {
        OFFSET 0 0 -39.357303
        CHANNELS 3 Zrotation Yrotation Xrotation
      }
    }
  }
  JOINT SpineLow
  {
    OFFSET 0 0 4.719101
    CHANNELS 3 Zrotation Yrotation Xrotation
    JOINT SpineMid
    {
      OFFSET 0 0 12.899191
      CHANNELS 3 Zrotation Yrotation Xrotation
      JOINT Chest
      {
        OFFSET 0 0 12.899191
        CHANNELS 3 Zrotation Yrotation Xrotation
        JOINT LeftShoulder
        {
          OFFSET 7.550562 1.41573 9.438202
          CHANNELS 3 Zrotation Yrotation Xrotation
          JOINT LeftArm
          {
            OFFSET 9.155056 0 4.247191
            CHANNELS 3 Zrotation Yrotation Xrotation
            JOINT LeftForearm
            {
              OFFSET 0 0 25.771955
              CHANNELS 3 Zrotation Yrotation Xrotation
              JOINT LeftHand
              {
                OFFSET 0 0 25.197169
                CHANNELS 3 Zrotation Yrotation Xrotation
              }
            }
          }
        }
        JOINT RightShoulder
        {
          OFFSET -7.550562 1.41573 9.438202
          CHANNELS 3 Zrotation Yrotation Xrotation
          JOINT RightArm
          {
            OFFSET -9.155056 0 4.247191
            CHANNELS 3 Zrotation Yrotation Xrotation
            JOINT RightForearm
            {
              OFFSET 0 0 -25.771955
              CHANNELS 3 Zrotation Yrotation Xrotation
              JOINT RightHand
              {
                OFFSET 0 0 -25.197169
                CHANNELS 3 Zrotation Yrotation Xrotation
              }
            }
          }
        }
        JOINT Neck
        {
          OFFSET 0 0 15.101124
          CHANNELS 3 Zrotation Yrotation Xrotation
          JOINT Head
          {
            OFFSET 0 0 11.325843
            CHANNELS 3 Zrotation Yrotation Xrotation
            End Site
            {
              OFFSET 0 0 14.157303
            }
          }
        }
      }
    }
  }
}
MOTION
Frames: 5
Frame Time: 0.0
0.0  93.25843  0.0  -110.802807  40.151222  166.51799  43.993716  -44.336436  -57.608267  -20.659874  15.629614  10.560119  -3.099784  -2.949869  1.414591  -4.753402  21.361842  -35.741588  -8.217814  24.466138  41.78675  -1.232222  0.738287  3.498253  -2.29541  -2.828277  1.260357  -6.446558  -7.600162  3.72598  -6.446558  -7.600162  3.72598  -19.029091  19.106473  -0.635518  123.167141  47.726404  -155.945558  -20.239443  5.094645  73.378166  43.378872  3.486758  5.883998  -0.106464  -10.844866  16.532409  59.191354  43.998838  22.559409  -33.060719  -23.655734  -97.853533  59.127832  16.906989  16.501742  -12.358256  -9.67655  10.475657  -9.082476  -7.474736  7.644351  
0.0  93.25843  0.0  -110.851155  40.400262  166.438988  44.222572  -43.866339  -57.527679  -20.913295  15.717732  10.532871  -3.165533  -2.981257  1.357702  -4.618152  19.480848  -35.6902  -7.802153  26.652461  43.884586  -1.015204  0.74808  3.614972  -2.288553  -2.75613  1.211988  -6.417209  -7.408437  3.584916  -6.417209  -7.408437  3.584916  -19.381847  18.977716  -0.592782  122.587476  47.962881  -156.250431  -20.450777  4.753752  73.06724  43.468829  3.36874  6.046146  -0.485147  -11.08237  16.486256  59.235178  43.378599  22.259485  -32.430891  -23.993583  -99.188614  59.268661  17.153182  16.490701  -12.646433  -9.82501  10.52704  -9.294052  -7.592335  7.674644  
0.0  93.25843  0.0  -111.049584  40.707441  166.191747  44.608212  -43.142314  -57.568098  -21.427391  15.868338  10.440273  -3.271276  -2.936957  1.307173  -3.558586  18.382943  -35.508349  -7.651474  27.79429  46.689687  -1.40948  0.781784  3.675902  -2.268303  -2.691131  1.166586  -6.352263  -7.236616  3.451399  -6.352263  -7.236616  3.451399  -19.942621  18.897767  -0.524534  122.090602  48.289946  -156.505658  -20.450588  4.409958  72.833654  43.475859  3.273507  6.193317  -1.243154  -11.233127  16.575623  59.386559  42.781393  22.050734  -31.774701  -24.006916  -100.639999  59.475774  17.27888  16.349699  -13.079389  -9.926253  10.529785  -9.61575  -7.676085  7.66731  
0.0  93.25843  0.0  -111.159143  41.050629  166.08825  44.577526  -42.679712  -57.287711  -21.622173  15.956439  10.448992  -3.303162  -2.947495  1.268933  -1.918849  17.799014  -35.552543  -7.820396  28.076767  49.962195  -2.12386  0.875548  3.704662  -2.261195  -2.641514  1.11127  -6.323574  -7.106949  3.293876  -6.323575  -7.106949  3.293876  -20.365254  18.879113  -0.403374  121.776848  48.709963  -156.654135  -20.339763  4.184392  72.649976  43.419366  3.219455  6.279997  -1.89407  -11.316258  16.744774  59.539851  42.221495  21.914873  -31.138516  -23.660095  -102.087365  59.839551  17.250514  16.150211  -13.435263  -9.95664  10.505931  -9.881765  -7.704702  7.643036  
0.0  93.25843  0.0  -111.484255  41.405263  165.632561  44.105428  -42.454673  -56.75394  -21.731844  16.105327  10.506332  -3.181535  -2.977146  1.265724  -0.208865  17.518325  -35.549584  -8.264774  27.858127  53.408678  -2.875712  0.91597  3.630387  -2.327826  -2.593443  1.099021  -6.501918  -6.97346  3.262322  -6.501918  -6.97346  3.262322  -20.534375  18.892903  -0.237389  121.701611  49.257228  -156.614627  -20.157837  4.1434  72.47424  43.428917  3.154001  6.313825  -2.372018  -11.336263  16.961237  59.623783  41.731431  21.834894  -30.489959  -22.966219  -103.543435  60.304326  17.028306  15.837805  -13.64102  -9.940772  10.440791  -10.037139  -7.694975  7.591453  
